<svg xmlns="http://www.w3.org/2000/svg" viewBox="0 0 32 32">
  <!-- Background with warm museum wall color -->
  <rect width="32" height="32" rx="6" fill="#E8DFD4"/>

  <!-- Impressionist-style paint dabs forming abstract landscape -->
  <!-- Sky dabs - soft blues and lavenders -->
  <ellipse cx="8" cy="8" rx="4" ry="3" fill="#7BA3C4" opacity="0.8" transform="rotate(-15 8 8)"/>
  <ellipse cx="16" cy="6" rx="5" ry="3" fill="#9BB8D4" opacity="0.7" transform="rotate(10 16 6)"/>
  <ellipse cx="24" cy="9" rx="4" ry="2.5" fill="#A8C4DC" opacity="0.75" transform="rotate(-5 24 9)"/>
  <ellipse cx="12" cy="11" rx="3" ry="2" fill="#8FAEC8" opacity="0.6" transform="rotate(20 12 11)"/>

  <!-- Sun/light - golden yellow -->
  <ellipse cx="22" cy="7" rx="3" ry="2.5" fill="#C5A55A" opacity="0.9" transform="rotate(-10 22 7)"/>
  <ellipse cx="21" cy="8" rx="2" ry="1.5" fill="#D4BC7C" opacity="0.8"/>

  <!-- Green foliage dabs -->
  <ellipse cx="6" cy="18" rx="4" ry="3" fill="#6B8E5A" opacity="0.85" transform="rotate(25 6 18)"/>
  <ellipse cx="12" cy="16" rx="3.5" ry="2.5" fill="#7A9E68" opacity="0.8" transform="rotate(-15 12 16)"/>
  <ellipse cx="9" cy="21" rx="3" ry="2.5" fill="#5C7E4A" opacity="0.9" transform="rotate(10 9 21)"/>
  <ellipse cx="15" cy="19" rx="3" ry="2" fill="#8AAE78" opacity="0.7" transform="rotate(-20 15 19)"/>

  <!-- Flower dabs - pops of color like Monet's garden -->
  <ellipse cx="7" cy="24" rx="2.5" ry="2" fill="#C4785C" opacity="0.9" transform="rotate(15 7 24)"/>
  <ellipse cx="13" cy="23" rx="2" ry="1.5" fill="#D4A574" opacity="0.85" transform="rotate(-10 13 23)"/>
  <ellipse cx="10" cy="26" rx="2" ry="1.5" fill="#B86B8A" opacity="0.8" transform="rotate(5 10 26)"/>

  <!-- Water reflections - soft blues -->
  <ellipse cx="22" cy="18" rx="5" ry="2" fill="#7BA3C4" opacity="0.5" transform="rotate(-5 22 18)"/>
  <ellipse cx="26" cy="21" rx="4" ry="1.5" fill="#9BB8D4" opacity="0.4" transform="rotate(8 26 21)"/>
  <ellipse cx="20" cy="23" rx="4.5" ry="2" fill="#8FAEC8" opacity="0.45" transform="rotate(-12 20 23)"/>
  <ellipse cx="24" cy="26" rx="5" ry="2" fill="#A8C4DC" opacity="0.5" transform="rotate(3 24 26)"/>

  <!-- A few bright accent dabs -->
  <ellipse cx="18" cy="14" rx="2" ry="1.5" fill="#C5A55A" opacity="0.7" transform="rotate(30 18 14)"/>
  <ellipse cx="25" cy="15" rx="1.5" ry="1" fill="#D4BC7C" opacity="0.6"/>
</svg>
